<?xml version="1.0" standalone="no"?>
<!DOCTYPE svg PUBLIC "-//W3C//DTD SVG 20010904//EN"
 "http://www.w3.org/TR/2001/REC-SVG-20010904/DTD/svg10.dtd">
<svg version="1.0" xmlns="http://www.w3.org/2000/svg"
 width="944.000000pt" height="944.000000pt" viewBox="0 0 944.000000 944.000000"
 preserveAspectRatio="xMidYMid meet">
<metadata>
Created by potrace 1.14, written by Peter Selinger 2001-2017
</metadata>
<g transform="translate(0.000000,944.000000) scale(0.100000,-0.100000)"
fill="#000000" stroke="none">
<path d="M6910 8397 c-22 -23 -35 -46 -155 -272 -100 -189 -375 -707 -412
-775 -20 -36 -60 -112 -91 -170 -30 -58 -73 -139 -95 -180 -68 -127 -102 -191
-162 -305 -32 -60 -66 -123 -75 -140 -10 -16 -46 -84 -80 -150 -77 -146 -173
-327 -255 -480 -18 -33 -53 -98 -78 -145 -24 -47 -156 -294 -292 -550 -136
-256 -276 -520 -312 -587 -35 -67 -75 -128 -88 -137 -64 -42 -105 -146 -99
-252 1 -27 5 -96 8 -153 5 -94 9 -109 38 -160 28 -48 43 -61 100 -90 64 -32
71 -33 170 -31 57 1 132 3 168 5 36 2 153 6 260 10 273 9 400 13 590 20 91 3
219 8 285 10 66 3 185 7 265 10 80 2 215 7 300 10 165 6 347 12 550 20 69 2
206 7 305 10 99 3 223 8 275 10 52 2 181 7 285 10 105 4 227 8 271 10 l82 4
31 -58 c56 -105 122 -150 222 -151 75 0 147 37 224 114 140 141 174 339 91
520 -40 86 -151 315 -331 681 -165 336 -174 352 -231 404 -95 88 -214 131
-345 126 -82 -4 -140 -23 -264 -88 -94 -49 -100 -54 -99 -82 1 -16 79 -187
173 -379 120 -243 168 -351 160 -357 -6 -4 -62 -8 -123 -9 -61 -1 -140 -3
-176 -5 -36 -1 -162 -6 -280 -10 -118 -3 -251 -8 -295 -10 -44 -2 -163 -7
-265 -10 -102 -3 -237 -8 -300 -10 -63 -2 -196 -7 -295 -10 -99 -4 -225 -8
-280 -10 -55 -3 -185 -7 -290 -10 -104 -4 -212 -8 -238 -10 l-48 -3 57 106
c31 59 74 139 94 177 21 39 59 111 85 160 26 50 60 113 75 140 30 56 89 165
175 330 32 61 86 162 120 225 34 63 88 165 120 225 32 61 75 142 95 180 93
174 138 258 282 530 85 160 160 299 166 310 6 11 48 90 93 175 45 85 102 193
127 240 93 172 115 229 132 332 40 254 -77 518 -294 662 -72 48 -98 53 -126
23z"/>
<path d="M41 8134 l-21 -27 3 -2046 c1 -1125 6 -2057 9 -2072 4 -14 23 -56 41
-95 18 -38 40 -85 47 -104 56 -144 201 -254 352 -266 91 -8 156 5 262 53 45
19 124 55 176 78 52 24 133 59 180 80 47 20 105 46 130 57 37 17 474 212 650
290 25 11 65 30 90 41 25 11 79 34 120 52 41 18 104 46 140 63 36 17 173 78
305 137 273 121 262 116 410 183 153 69 250 112 395 175 69 30 152 67 185 82
33 15 74 33 90 40 187 81 217 104 217 168 0 87 -158 272 -289 340 -107 56
-197 76 -323 72 -73 -2 -122 -9 -160 -23 -42 -15 -894 -390 -1085 -478 -201
-92 -1200 -533 -1202 -530 -2 1 -3 709 -3 1572 -1 978 -5 1588 -11 1619 -5 28
-12 63 -15 80 -3 16 -9 34 -13 40 -4 5 -14 26 -21 45 -33 88 -125 201 -220
271 -92 69 -248 123 -366 128 -46 2 -54 -1 -73 -25z"/>
<path d="M1088 2683 c-176 -287 -236 -582 -162 -801 44 -133 102 -206 279
-352 55 -45 110 -90 122 -101 242 -203 491 -343 688 -385 183 -39 528 -60 645
-40 140 25 174 36 323 105 81 37 277 159 337 210 14 11 30 24 35 28 127 96
407 377 569 571 66 78 123 141 126 140 4 -2 51 -55 105 -118 130 -151 394
-415 523 -523 242 -201 513 -354 707 -397 190 -43 572 -22 759 42 178 60 285
133 606 412 153 133 209 190 255 259 155 234 126 583 -78 940 -21 37 -42 67
-45 67 -4 0 -22 -26 -39 -58 -68 -120 -87 -150 -161 -257 -364 -532 -749 -825
-1098 -834 -231 -6 -543 142 -848 403 -126 108 -373 362 -482 496 -16 19 -31
37 -34 40 -10 10 -86 105 -125 158 -21 28 -42 52 -46 52 -3 0 -19 -19 -34 -42
-15 -23 -66 -91 -113 -152 -259 -332 -557 -619 -803 -771 -216 -134 -362 -181
-559 -179 -157 1 -292 43 -460 143 -290 172 -638 532 -890 919 -29 45 -56 82
-60 82 -4 0 -23 -26 -42 -57z"/>
</g>
</svg>
