<svg xmlns="http://www.w3.org/2000/svg" width="53.87" height="43.61" viewBox="0 0 943.814 744.367">
  <g id="Group_1" data-name="Group 1" transform="translate(-290 -141.878)">
    <path id="Rectangle_3" data-name="Rectangle 3" d="M6.727,0h0A67.273,67.273,0,0,1,74,67.273V418.435a6.727,6.727,0,0,1-6.727,6.727H16.818A16.818,16.818,0,0,1,0,408.344V6.727A6.727,6.727,0,0,1,6.727,0Z" transform="translate(292 170)" fill="#ff1688"/>
    <path id="Path_5" data-name="Path 5" d="M63.429,0h0A10.571,10.571,0,0,1,74,10.571V347.147a42.286,42.286,0,0,1-42.286,42.286H10.571A10.571,10.571,0,0,1,0,378.862V63.429A63.429,63.429,0,0,1,63.429,0Z" transform="translate(645.765 421.499) rotate(66)" fill="#ff1688"/>
    <path id="Rectangle_5" data-name="Rectangle 5" d="M6.727,0h0A67.273,67.273,0,0,1,74,67.273V458.344a16.818,16.818,0,0,1-16.818,16.818H6.727A6.727,6.727,0,0,1,0,468.435V6.727A6.727,6.727,0,0,1,6.727,0Z" transform="translate(982.256 141.878) rotate(28)" fill="#ff1688"/>
    <path id="Rectangle_6" data-name="Rectangle 6" d="M4.644,0H23.218A46.435,46.435,0,0,1,69.653,46.435V151.726a46.435,46.435,0,0,1-46.435,46.435h0A23.218,23.218,0,0,1,0,174.944V4.644A4.644,4.644,0,0,1,4.644,0Z" transform="translate(1084.342 441.954) rotate(-26)" fill="#ff1688"/>
    <rect id="Rectangle_7" data-name="Rectangle 7" width="74" height="439.918" rx="25" transform="translate(1200.337 515.618) rotate(88)" fill="#ff1688"/>
    <path id="Path_4" data-name="Path 4" d="M3.231,0S72.549,115.858,145.518,115.858,295.106,0,295.106,0s81.573,115.858,152.336,115.858S578.16,0,578.16,0s50.6,72.047,0,115.858-59.955,59.387-130.718,59.387S297.239,69.8,295.106,68.647s-76.619,106.6-149.588,106.6S56.858,159.669,3.231,115.858,3.231,0,3.231,0Z" transform="translate(399.945 711)" fill="#ff1688"/>
    <path id="Path_4_-_Outline" data-name="Path 4 - Outline" d="M295.131,1.75c-1.7,2.5-6.029,8.721-12.343,16.961-4.843,6.32-9.893,12.576-15.011,18.595-6.4,7.525-12.921,14.7-19.386,21.322C231.918,75.5,215.7,88.952,200.2,98.6a137.065,137.065,0,0,1-26.978,13.22,84.384,84.384,0,0,1-27.707,5.034,81.692,81.692,0,0,1-27.4-5.036,127.248,127.248,0,0,1-26.16-13.227c-14.9-9.656-30.27-23.111-45.685-39.991-6.05-6.625-12.122-13.8-18.047-21.327-4.739-6.02-9.4-12.278-13.842-18.6C8.663,10.544,4.756,4.375,3.168,1.812c-1.253,1.8-3.74,5.529-6.608,10.62-2.417,4.291-4.622,8.69-6.555,13.077a126.989,126.989,0,0,0-5.924,16.265c-3.849,13.484-4.687,26.036-2.494,37.307a58.24,58.24,0,0,0,7.1,18.709,66.148,66.148,0,0,0,15.17,17.294q3.5,2.861,6.8,5.563c11.911,9.759,22.2,18.186,31.689,25.07,4.984,3.615,9.527,6.647,13.889,9.268a127.181,127.181,0,0,0,13.884,7.275c19.118,8.513,40.962,11.985,75.4,11.985,25.57,0,54.385-13.424,85.645-39.9a384,384,0,0,0,33.767-32.705c9.577-10.394,17.271-19.656,22.362-25.785,6.315-7.6,6.9-8.218,7.775-8.218a1.085,1.085,0,0,1,.516.13c.385.208.847.743,3.889,4.366,8.121,9.674,29.693,35.372,56.913,58.479,15.32,13.006,30.17,23.266,44.137,30.495A131,131,0,0,0,424,170.687a84.472,84.472,0,0,0,23.443,3.558c31.211,0,50.593-3.015,66.9-10.406a98.181,98.181,0,0,0,11.65-6.284c3.616-2.263,7.341-4.877,11.389-7.994,7.711-5.936,15.927-13.189,25.44-21.587,4.609-4.068,9.374-8.275,14.684-12.873a65.146,65.146,0,0,0,14.3-17.277,60.439,60.439,0,0,0,6.71-18.706c2.075-11.272,1.289-23.825-2.335-37.309A131.953,131.953,0,0,0,590.6,25.544c-1.823-4.389-3.9-8.791-6.183-13.085-2.639-4.97-4.944-8.651-6.16-10.515-1.439,2.667-4.8,8.739-9.721,16.685-3.915,6.322-8.04,12.581-12.259,18.6C551,44.761,545.563,51.938,540.11,58.564c-13.9,16.887-27.966,30.349-41.818,40.011a113.026,113.026,0,0,1-24.564,13.24,74.608,74.608,0,0,1-26.286,5.042,82.338,82.338,0,0,1-27.195-5.035,141.416,141.416,0,0,1-26.987-13.217c-15.635-9.65-32.2-23.1-49.227-39.967A492.392,492.392,0,0,1,308.179,18.73c-6.659-8.264-11.251-14.5-13.048-16.98M3.231,0S72.549,115.858,145.518,115.858,295.106,0,295.106,0s81.573,115.858,152.336,115.858S578.16,0,578.16,0s50.6,72.047,0,115.858-59.955,59.387-130.718,59.387S297.239,69.8,295.106,68.647s-76.619,106.6-149.588,106.6S56.858,159.669,3.231,115.858,3.231,0,3.231,0Z" transform="translate(399.945 711)" fill="#707070"/>
  </g>
</svg>
